<svg id="레이어_1" data-name="레이어 1" xmlns="http://www.w3.org/2000/svg" viewBox="0 0 340.59 78.2"><defs><style>.cls-1{fill:#97d5e0;}</style></defs><title>CorpLogo</title><path class="cls-1" d="M85.86,220.85h13.3l13.2,53.5,14.6-53.5h12.3l14.5,53.4,13.7-53.4h12.3L159.86,293h-12.2l-14.6-55.5L117.86,293h-12.4Z" transform="translate(-85.86 -216.75)"/><path class="cls-1" d="M204.26,293.75q-8.91,0-13.8-4.05t-4.9-11.35v-3.2a17.94,17.94,0,0,1,1.05-6.25,11.79,11.79,0,0,1,3.5-4.95,17.47,17.47,0,0,1,6.45-3.3,34.46,34.46,0,0,1,9.8-1.2H219v-2.1c0-3.4-.79-5.85-2.35-7.35s-4.05-2.25-7.45-2.25a24.59,24.59,0,0,0-15.6,5.5l-6.2-9.2a52.73,52.73,0,0,1,9.5-5.15,34.57,34.57,0,0,1,21.3-1.05,21.48,21.48,0,0,1,7.05,3.45,15.93,15.93,0,0,1,4.6,5.5,16.21,16.21,0,0,1,1.65,7.45V293h-11.3l-.2-6.8a9.14,9.14,0,0,1-2.55,3.25,16.87,16.87,0,0,1-3.95,2.4,24.62,24.62,0,0,1-4.6,1.45A22.85,22.85,0,0,1,204.26,293.75Zm14.7-24.5h-12.3c-3.34,0-5.65.63-6.95,1.9a6.77,6.77,0,0,0-2,5.1v1.2a5,5,0,0,0,1.9,4.2,8.88,8.88,0,0,0,5.6,1.5q7.69,0,11.4-3.7a6.62,6.62,0,0,0,2-3.65,34.48,34.48,0,0,0,.3-5.05Z" transform="translate(-85.86 -216.75)"/><path class="cls-1" d="M249.26,248.15h-8.8v-10.3h8.8v-3.8q0-8.31,4.45-12.8t13.55-4.5a33,33,0,0,1,5.9.5,29.61,29.61,0,0,1,4.5,1.1l-2,10.1a22.79,22.79,0,0,0-7.2-1q-6.6,0-6.6,6.9v3.5h13.9v10.3h-13.9V293h-12.6Z" transform="translate(-85.86 -216.75)"/><path class="cls-1" d="M289.86,248.15h-8.8v-10.3h8.8v-3.8q0-8.31,4.45-12.8t13.55-4.5a33,33,0,0,1,5.9.5,29.61,29.61,0,0,1,4.5,1.1l-2,10.1a22.79,22.79,0,0,0-7.2-1q-6.6,0-6.6,6.9v3.5h13.9v10.3h-13.9V293h-12.6Z" transform="translate(-85.86 -216.75)"/><path class="cls-1" d="M326.86,217.35h12.6V293h-12.6Z" transform="translate(-85.86 -216.75)"/><path class="cls-1" d="M399.36,287.85a34.18,34.18,0,0,1-9.4,4.3,47.28,47.28,0,0,1-13.21,1.6,34.65,34.65,0,0,1-9.29-1.25,21.56,21.56,0,0,1-8-4.2,20.79,20.79,0,0,1-5.7-7.9,31,31,0,0,1-2.16-12.35v-5.7a31.09,31.09,0,0,1,1.95-11.55,21.71,21.71,0,0,1,5.36-8,21.34,21.34,0,0,1,7.94-4.65,31.35,31.35,0,0,1,9.86-1.5,30,30,0,0,1,9.64,1.5A20.32,20.32,0,0,1,394,242.7a21.07,21.07,0,0,1,5,7.6,28.55,28.55,0,0,1,1.79,10.55V270H363.86q0,6.6,3.5,9.95t10.1,3.35a32.82,32.82,0,0,0,8.7-1.05,35.2,35.2,0,0,0,8-3.45Zm-10.7-27.4v-2.4a13.29,13.29,0,0,0-.66-4.2,8.58,8.58,0,0,0-2.14-3.5,10.89,10.89,0,0,0-3.81-2.4,15.34,15.34,0,0,0-5.59-.9c-4.21,0-7.35,1.1-9.46,3.3a11.18,11.18,0,0,0-3.14,8v2.1Z" transform="translate(-85.86 -216.75)"/><path class="cls-1" d="M418.55,279.15a7.69,7.69,0,1,1-5.65,2.25A7.66,7.66,0,0,1,418.55,279.15Z" transform="translate(-85.86 -216.75)"/></svg>